Coordinates
version=1
nRows=12
nColumns=24
inDegrees=yes

Units are S.I. units (second, meters, Newtons, ...)
Angles are in degrees.

endheader
time	pelvis_tilt	pelvis_list	pelvis_rotation	pelvis_tx	pelvis_ty	pelvis_tz	hip_flexion_r	hip_adduction_r	hip_rotation_r	knee_angle_r	ankle_angle_r	subtalar_angle_r	mtp_angle_r	hip_flexion_l	hip_adduction_l	hip_rotation_l	knee_angle_l	ankle_angle_l	subtalar_angle_l	mtp_angle_l	lumbar_extension	lumbar_bending	lumbar_rotation
      0.70700000	     -2.32030113	      8.23473879	      5.15303747	      0.04290113	      0.96046343	      0.30697991	     31.15267487	     -9.96479838	      1.04754486	     -2.31038435	      4.21731275	     -6.81192914	      3.83823732	    -26.20719060	     10.31763388	     12.93329871	      3.00965804	      5.21188702	     -8.87734337	      7.45717817	     -8.81154331	     -0.73161284	    -13.17272451
      0.71116667	     -2.40625028	      8.09028446	      5.21301818	      0.04898354	      0.95983199	      0.30728593	     31.24851605	     -9.78072210	      1.23548128	     -2.99873376	      4.12523826	     -6.77334917	      3.85654651	    -26.30344009	     10.12730918	     12.76338362	      2.72548526	      4.99253171	     -8.81115172	      7.47359330	     -8.64906161	     -0.52131749	    -13.17523687
      0.71533333	     -2.52874192	      7.94801882	      5.28466712	      0.05511194	      0.95918970	      0.30761416	     31.37470043	     -9.59977848	      1.42893880	     -3.68023900	      3.93191746	     -6.79970093	      3.93352897	    -26.32535894	      9.94139668	     12.50786136	      2.36423719	      4.86591176	     -8.52669032	      7.60436776	     -8.44790971	     -0.33544621	    -13.20369420
      0.71950000	     -2.59450793	      7.76811731	      5.33939993	      0.06131992	      0.95864229	      0.30796460	     31.42401860	     -9.37182401	      1.57581447	     -4.33467276	      3.69388288	     -6.82914262	      3.95425485	    -26.42859477	      9.71351458	     12.30950634	      2.06384899	      4.58899765	     -8.48767752	      7.64200942	     -8.30729564	     -0.10227923	    -13.19686174
      0.72366667	     -2.70330804	      7.57961016	      5.38963125	      0.06759157	      0.95807163	      0.30835756	     31.50097541	     -9.12976748	      1.76438872	     -4.94985569	      3.38917117	     -6.86512617	      4.00467132	    -26.46745871	      9.48261358	     12.07584264	      1.73003510	      4.30819987	     -8.33698231	      7.74626217	     -8.10675805	      0.16751570	    -13.20051717
      0.72783333	     -2.79410345	      7.39227319	      5.44020638	      0.07390903	      0.95755046	      0.30874899	     31.57114836	     -8.88863835	      1.88210202	     -5.59106570	      3.03354869	     -6.89660902	      4.05215925	    -26.51237496	      9.25288515	     11.82750493	      1.37121448	      4.01716457	     -8.21510605	      7.85121740	     -7.91054692	      0.41973711	    -13.20201530
      0.73200000	     -2.91137304	      7.18357605	      5.48511072	      0.08028545	      0.95702545	      0.30917629	     31.66509190	     -8.62158684	      2.00291897	     -6.21995621	      2.62483860	     -6.93948635	      4.12839910	    -26.51160067	      9.00592150	     11.54773601	      0.98673753	      3.71805566	     -8.03079767	      8.02456046	     -7.70328379	      0.69047300	    -13.21076365
      0.73616667	     -3.03308257	      6.98132438	      5.53454855	      0.08669508	      0.95652324	      0.30964280	     31.76453397	     -8.35634981	      2.12589026	     -6.84618803	      2.11560653	     -7.18800167	      4.45265269	    -26.44438324	      8.76635459	     11.10796401	      0.47028544	      3.60722880	     -7.53004349	      8.77742554	     -7.45096751	      0.94663349	    -13.27200786
      0.74033333	     -3.11566949	      6.78717941	      5.56196116	      0.09314114	      0.95608815	      0.31007267	     31.85610859	     -8.10223244	      2.13005322	     -7.52798607	      1.64543845	     -7.10382172	      6.76531987	    -26.47273833	      8.53717625	     10.88847192	      0.09571218	      2.99534314	     -7.67502435	     14.08120114	     -7.28952936	      1.18601979	    -13.15841158
      0.74450000	     -3.20462225	      6.55819227	      5.57538209	      0.09966542	      0.95567332	      0.31055481	     31.94851590	     -7.80211475	      2.15997127	     -8.20183833	      1.17430366	     -7.10252829	      6.77918618	    -26.47590367	      8.27732842	     10.61342130	     -0.31758573	      2.56260738	     -7.57158840	     14.10592073	     -7.09699370	      1.49646264	    -13.18896319
      0.74866667	     -3.32177588	      6.33951594	      5.59209226	      0.10621005	      0.95525570	      0.31107040	     32.07535598	     -7.50926820	      2.20571654	     -8.87964605	      0.62647397	     -7.26998785	      6.85428851	    -26.39410252	      8.03193136	     10.24866012	     -0.84569848	      2.23668722	     -7.30500838	     14.28723899	     -6.84433628	      1.78703642	    -13.24018996
      0.75283333	     -3.39506486	      6.12595907	      5.58347180	      0.11278890	      0.95491596	      0.31157976	     32.18110721	     -7.21770489	      2.18846756	     -9.60437357	      0.14030147	     -7.23930110	      6.88027600	    -26.37549511	      7.79716119	      9.96802824	     -1.32465327	      1.71125210	     -7.25352199	     14.35603680	     -6.66577888	      2.07228418	    -13.21135840
